<?xml version="1.0" standalone="no"?>
<!DOCTYPE svg PUBLIC "-//W3C//DTD SVG 20010904//EN"
 "http://www.w3.org/TR/2001/REC-SVG-20010904/DTD/svg10.dtd">
<svg version="1.0" xmlns="http://www.w3.org/2000/svg"
 width="1000.000000pt" height="1000.000000pt" viewBox="0 0 1000.000000 1000.000000"
 preserveAspectRatio="xMidYMid meet">
<metadata>
Created by potrace 1.11, written by Peter Selinger 2001-2013
</metadata>
<g transform="translate(0.000000,1000.000000) scale(0.100000,-0.100000)"
fill="#000000" stroke="none">
<path d="M5680 9889 c-156 -14 -327 -38 -475 -65 -114 -21 -4459 -992 -4518
-1010 -16 -5 -17 -162 -15 -3166 l3 -3160 1890 -1159 c1040 -638 1920 -1178
1956 -1200 l67 -40 1223 416 c673 228 1737 590 2364 803 l1140 387 3 2773 c2
2713 2 2776 -17 2869 -25 122 -97 269 -184 379 -255 320 -766 534 -1364 571
-57 3 -103 9 -103 12 0 3 14 26 30 51 39 58 86 171 107 257 24 99 22 285 -5
386 -102 377 -486 687 -1029 827 -216 56 -358 72 -683 75 -162 2 -338 -1 -390
-6z m610 -520 c303 -27 588 -118 765 -244 85 -61 172 -155 201 -220 34 -73 31
-174 -5 -249 -81 -166 -305 -325 -591 -419 -58 -19 -1080 -257 -2272 -528
l-2168 -494 0 -2528 c0 -1430 -4 -2527 -9 -2525 -4 2 -236 143 -515 313 l-506
310 0 2802 c0 2660 1 2802 18 2807 50 16 3957 890 4067 911 370 68 727 91
1015 64z m1518 -1610 c302 -32 577 -120 752 -239 81 -55 176 -160 207 -227
112 -242 -128 -509 -587 -653 -74 -23 -935 -219 -2095 -475 -1083 -240 -1978
-438 -1987 -441 -17 -5 -18 -126 -18 -2355 0 -1292 -2 -2349 -4 -2349 -5 0
-1306 798 -1322 811 -12 10 -14 367 -14 2485 0 1669 3 2475 10 2479 11 7 3751
861 3942 900 157 32 384 64 543 75 148 10 431 5 573 -11z m992 -3141 c0 -1172
-3 -1719 -10 -1712 -23 23 -1561 2967 -1553 2974 4 4 208 51 453 105 646 142
774 180 995 299 55 30 103 54 108 55 4 1 7 -774 7 -1721z m-2380 1075 c0 -5
-407 -1068 -905 -2363 l-904 -2355 2 2164 2 2165 885 197 c487 108 893 197
903 198 9 0 17 -2 17 -6z m1350 -1981 c486 -925 881 -1685 878 -1688 -11 -10
-3523 -1200 -3526 -1194 -1 4 383 1012 854 2241 471 1229 865 2258 876 2287
11 30 24 50 28 45 5 -4 405 -765 890 -1691z"/>
</g>
</svg>
