<?xml version="1.0" standalone="no"?>
<!DOCTYPE svg PUBLIC "-//W3C//DTD SVG 20010904//EN"
 "http://www.w3.org/TR/2001/REC-SVG-20010904/DTD/svg10.dtd">
<svg version="1.0" xmlns="http://www.w3.org/2000/svg"
 width="500.000000pt" height="500.000000pt" viewBox="0 0 500.000000 500.000000"
 preserveAspectRatio="xMidYMid meet">
<metadata>
Created by potrace 1.11, written by Peter Selinger 2001-2013
</metadata>
<g transform="translate(0.000000,500.000000) scale(0.100000,-0.100000)"
fill="#000000" stroke="none">
<path d="M2195 4854 c-392 -53 -758 -196 -1069 -417 -197 -140 -398 -333 -522
-502 -16 -22 -31 -42 -34 -45 -34 -33 -167 -261 -221 -377 -99 -211 -180 -480
-204 -673 -16 -123 -20 -199 -20 -345 0 -242 19 -400 71 -595 31 -115 84 -271
95 -285 5 -5 9 -15 9 -22 0 -21 123 -261 180 -354 176 -280 453 -562 725 -736
145 -93 276 -160 405 -210 36 -14 74 -29 85 -33 115 -50 374 -108 570 -128
136 -14 508 -6 575 13 8 2 37 6 64 10 27 3 108 21 180 40 738 189 1342 720
1621 1425 35 90 90 259 99 304 2 12 9 41 15 66 12 54 28 155 37 230 3 30 8 66
10 80 8 50 4 351 -6 442 -71 633 -374 1194 -858 1592 -81 66 -263 196 -276
196 -2 0 -33 17 -67 38 -213 127 -557 245 -809 278 -25 3 -56 8 -70 11 -57 12
-487 10 -585 -3z m515 -808 c14 -4 39 -8 55 -10 130 -18 343 -93 489 -174 235
-130 452 -340 584 -565 44 -76 57 -102 96 -190 40 -89 77 -206 90 -282 3 -16
8 -41 11 -55 2 -14 7 -38 11 -55 13 -67 12 -342 -2 -430 -67 -435 -281 -794
-624 -1048 -173 -129 -437 -246 -611 -272 -24 -4 -46 -8 -49 -10 -11 -7 -141
-18 -235 -20 -430 -9 -822 151 -1130 459 -193 193 -313 389 -390 636 -82 263
-93 556 -31 823 147 633 697 1124 1336 1194 30 3 57 7 59 9 6 5 314 -4 341
-10z"/>
<path d="M2435 3635 c-124 -22 -206 -73 -274 -174 -74 -108 -71 -70 -71 -965
0 -848 0 -849 48 -941 33 -65 112 -139 187 -175 160 -76 350 -39 471 92 41 44
68 91 89 158 17 50 18 116 18 850 0 437 -3 812 -7 834 -40 210 -250 357 -461
321z"/>
</g>
</svg>
